<svg xmlns="http://www.w3.org/2000/svg" xmlns:xlink="http://www.w3.org/1999/xlink" width="378" zoomAndPan="magnify" viewBox="0 0 283.5 283.500005" height="378" preserveAspectRatio="xMidYMid meet" version="1.0"><defs><g/><clipPath id="b17f79d9f6"><path d="M 0 0 L 283 0 L 283 283 L 0 283 Z M 0 0 " clip-rule="nonzero"/></clipPath></defs><path fill="#ffffff" d="M 0 0 L 283 0 L 283 283 L 0 283 Z M 0 0 " fill-opacity="1" fill-rule="nonzero"/><g clip-path="url(#b17f79d9f6)"><path fill="#3e75ce" d="M 0 0 L 283.035156 0 L 283.035156 283.035156 L 0 283.035156 Z M 0 0 " fill-opacity="1" fill-rule="nonzero"/></g><g fill="#ebead9" fill-opacity="1"><g transform="translate(45.153738, 89.905028)"><g><path d="M 12.9375 -43.046875 L 12.9375 0 L 3.125 0 L 3.125 -43.046875 Z M 12.9375 -43.046875 "/></g></g></g><g fill="#ebead9" fill-opacity="1"><g transform="translate(58.619482, 89.905028)"><g/></g></g><g fill="#ebead9" fill-opacity="1"><g transform="translate(70.258481, 89.905028)"><g><path d="M 14.765625 -27.5625 C 16.296875 -27.5625 17.804688 -27.382812 19.296875 -27.03125 C 20.796875 -26.6875 21.914062 -26.335938 22.65625 -25.984375 L 23.75 -25.46875 L 20.71875 -19.40625 C 18.632812 -20.519531 16.648438 -21.078125 14.765625 -21.078125 C 13.722656 -21.078125 12.984375 -20.960938 12.546875 -20.734375 C 12.117188 -20.515625 11.90625 -20.09375 11.90625 -19.46875 C 11.90625 -19.320312 11.921875 -19.179688 11.953125 -19.046875 C 11.984375 -18.910156 12.050781 -18.78125 12.15625 -18.65625 C 12.257812 -18.53125 12.351562 -18.425781 12.4375 -18.34375 C 12.53125 -18.257812 12.679688 -18.164062 12.890625 -18.0625 C 13.097656 -17.957031 13.257812 -17.878906 13.375 -17.828125 C 13.5 -17.773438 13.703125 -17.695312 13.984375 -17.59375 C 14.265625 -17.488281 14.472656 -17.410156 14.609375 -17.359375 C 14.753906 -17.304688 14.988281 -17.222656 15.3125 -17.109375 C 15.644531 -17.003906 15.898438 -16.9375 16.078125 -16.90625 C 17.148438 -16.59375 18.085938 -16.242188 18.890625 -15.859375 C 19.691406 -15.484375 20.535156 -14.960938 21.421875 -14.296875 C 22.304688 -13.640625 22.992188 -12.804688 23.484375 -11.796875 C 23.972656 -10.785156 24.21875 -9.632812 24.21875 -8.34375 C 24.21875 -2.257812 19.988281 0.78125 11.53125 0.78125 C 9.613281 0.78125 7.796875 0.488281 6.078125 -0.09375 C 4.359375 -0.6875 3.113281 -1.28125 2.34375 -1.875 L 1.203125 -2.8125 L 4.953125 -9.125 C 5.234375 -8.882812 5.597656 -8.597656 6.046875 -8.265625 C 6.503906 -7.941406 7.320312 -7.488281 8.5 -6.90625 C 9.6875 -6.332031 10.710938 -6.046875 11.578125 -6.046875 C 13.492188 -6.046875 14.453125 -6.691406 14.453125 -7.984375 C 14.453125 -8.578125 14.207031 -9.035156 13.71875 -9.359375 C 13.238281 -9.691406 12.414062 -10.066406 11.25 -10.484375 C 10.082031 -10.898438 9.164062 -11.285156 8.5 -11.640625 C 6.832031 -12.503906 5.507812 -13.484375 4.53125 -14.578125 C 3.5625 -15.679688 3.078125 -17.132812 3.078125 -18.9375 C 3.078125 -21.65625 4.128906 -23.769531 6.234375 -25.28125 C 8.335938 -26.800781 11.179688 -27.5625 14.765625 -27.5625 Z M 14.765625 -27.5625 "/></g></g></g><g fill="#ebead9" fill-opacity="1"><g transform="translate(93.327703, 89.905028)"><g><path d="M 4.703125 -26.765625 L 4.703125 -36.734375 L 13.9375 -36.734375 L 13.9375 -26.765625 L 19.5625 -26.765625 L 19.5625 -19.734375 L 13.9375 -19.734375 L 13.9375 -11.21875 C 13.9375 -8.75 14.628906 -7.515625 16.015625 -7.515625 C 16.367188 -7.515625 16.734375 -7.582031 17.109375 -7.71875 C 17.492188 -7.863281 17.789062 -8.003906 18 -8.140625 L 18.3125 -8.34375 L 20.609375 -0.890625 C 18.628906 0.222656 16.367188 0.78125 13.828125 0.78125 C 12.085938 0.78125 10.59375 0.476562 9.34375 -0.125 C 8.09375 -0.738281 7.144531 -1.554688 6.5 -2.578125 C 5.851562 -3.609375 5.390625 -4.6875 5.109375 -5.8125 C 4.835938 -6.945312 4.703125 -8.160156 4.703125 -9.453125 L 4.703125 -19.734375 L 0.828125 -19.734375 L 0.828125 -26.765625 Z M 4.703125 -26.765625 "/></g></g></g><g fill="#ebead9" fill-opacity="1"><g transform="translate(111.334226, 89.905028)"><g><path d="M 4.953125 -3.3125 C 2.453125 -6.039062 1.203125 -9.390625 1.203125 -13.359375 C 1.203125 -17.328125 2.453125 -20.6875 4.953125 -23.4375 C 7.460938 -26.1875 10.648438 -27.5625 14.515625 -27.5625 C 18.054688 -27.5625 20.976562 -26.445312 23.28125 -24.21875 L 23.28125 -26.765625 L 32.515625 -26.765625 L 32.515625 0 L 23.375 0 L 23.375 -3.03125 L 23.28125 -3.03125 C 20.976562 -0.488281 18.054688 0.78125 14.515625 0.78125 C 10.648438 0.78125 7.460938 -0.582031 4.953125 -3.3125 Z M 12.8125 -17.890625 C 11.613281 -16.710938 11.015625 -15.203125 11.015625 -13.359375 C 11.015625 -11.515625 11.585938 -10.007812 12.734375 -8.84375 C 13.878906 -7.675781 15.394531 -7.09375 17.28125 -7.09375 C 19.082031 -7.09375 20.566406 -7.679688 21.734375 -8.859375 C 22.898438 -10.046875 23.484375 -11.546875 23.484375 -13.359375 C 23.484375 -15.203125 22.882812 -16.710938 21.6875 -17.890625 C 20.488281 -19.078125 19.019531 -19.671875 17.28125 -19.671875 C 15.5 -19.671875 14.007812 -19.078125 12.8125 -17.890625 Z M 12.8125 -17.890625 "/></g></g></g><g fill="#ebead9" fill-opacity="1"><g transform="translate(144.372274, 89.905028)"><g><path d="M 3.125 0 L 3.125 -26.765625 L 12.375 -26.765625 L 12.375 -23.953125 L 12.46875 -23.953125 C 14.875 -26.359375 17.429688 -27.5625 20.140625 -27.5625 C 21.460938 -27.5625 22.773438 -27.382812 24.078125 -27.03125 C 25.390625 -26.6875 26.644531 -26.144531 27.84375 -25.40625 C 29.039062 -24.675781 30.015625 -23.640625 30.765625 -22.296875 C 31.515625 -20.960938 31.890625 -19.410156 31.890625 -17.640625 L 31.890625 0 L 22.65625 0 L 22.65625 -15.140625 C 22.65625 -16.523438 22.207031 -17.738281 21.3125 -18.78125 C 20.425781 -19.832031 19.269531 -20.359375 17.84375 -20.359375 C 16.457031 -20.359375 15.195312 -19.816406 14.0625 -18.734375 C 12.9375 -17.660156 12.375 -16.460938 12.375 -15.140625 L 12.375 0 Z M 3.125 0 "/></g></g></g><g fill="#ebead9" fill-opacity="1"><g transform="translate(176.262081, 89.905028)"><g><path d="M 4.953125 -3.3125 C 2.453125 -6.039062 1.203125 -9.390625 1.203125 -13.359375 C 1.203125 -17.328125 2.453125 -20.6875 4.953125 -23.4375 C 7.460938 -26.1875 10.648438 -27.5625 14.515625 -27.5625 C 18.054688 -27.5625 20.976562 -26.445312 23.28125 -24.21875 L 23.28125 -44.875 L 32.515625 -44.875 L 32.515625 0 L 23.375 0 L 23.375 -3.03125 L 23.28125 -3.03125 C 20.976562 -0.488281 18.054688 0.78125 14.515625 0.78125 C 10.648438 0.78125 7.460938 -0.582031 4.953125 -3.3125 Z M 12.8125 -17.890625 C 11.613281 -16.710938 11.015625 -15.203125 11.015625 -13.359375 C 11.015625 -11.515625 11.585938 -10.007812 12.734375 -8.84375 C 13.878906 -7.675781 15.394531 -7.09375 17.28125 -7.09375 C 19.082031 -7.09375 20.566406 -7.679688 21.734375 -8.859375 C 22.898438 -10.046875 23.484375 -11.546875 23.484375 -13.359375 C 23.484375 -15.203125 22.882812 -16.710938 21.6875 -17.890625 C 20.488281 -19.078125 19.019531 -19.671875 17.28125 -19.671875 C 15.5 -19.671875 14.007812 -19.078125 12.8125 -17.890625 Z M 12.8125 -17.890625 "/></g></g></g><g fill="#ebead9" fill-opacity="1"><g transform="translate(45.153738, 139.488157)"><g><path d="M 19.5625 0 L 13.3125 0 L -1.046875 -26.765625 L 9.609375 -26.765625 L 16.125 -12.3125 L 22.546875 -26.765625 L 28.90625 -26.765625 L 35.328125 -12.3125 L 41.859375 -26.765625 L 52.5 -26.765625 L 38.15625 0 L 31.890625 0 L 25.734375 -13.828125 Z M 19.5625 0 "/></g></g></g><g fill="#ebead9" fill-opacity="1"><g transform="translate(94.006205, 139.488157)"><g><path d="M 4.015625 -41.6875 C 5.097656 -42.769531 6.382812 -43.3125 7.875 -43.3125 C 9.375 -43.3125 10.660156 -42.769531 11.734375 -41.6875 C 12.816406 -40.613281 13.359375 -39.328125 13.359375 -37.828125 C 13.359375 -36.335938 12.816406 -35.050781 11.734375 -33.96875 C 10.660156 -32.894531 9.375 -32.359375 7.875 -32.359375 C 6.382812 -32.359375 5.097656 -32.894531 4.015625 -33.96875 C 2.941406 -35.050781 2.40625 -36.335938 2.40625 -37.828125 C 2.40625 -39.328125 2.941406 -40.613281 4.015625 -41.6875 Z M 3.125 -26.765625 L 3.125 0 L 12.375 0 L 12.375 -26.765625 Z M 3.125 -26.765625 "/></g></g></g><g fill="#ebead9" fill-opacity="1"><g transform="translate(107.158794, 139.488157)"><g><path d="M 4.703125 -26.765625 L 4.703125 -36.734375 L 13.9375 -36.734375 L 13.9375 -26.765625 L 19.5625 -26.765625 L 19.5625 -19.734375 L 13.9375 -19.734375 L 13.9375 -11.21875 C 13.9375 -8.75 14.628906 -7.515625 16.015625 -7.515625 C 16.367188 -7.515625 16.734375 -7.582031 17.109375 -7.71875 C 17.492188 -7.863281 17.789062 -8.003906 18 -8.140625 L 18.3125 -8.34375 L 20.609375 -0.890625 C 18.628906 0.222656 16.367188 0.78125 13.828125 0.78125 C 12.085938 0.78125 10.59375 0.476562 9.34375 -0.125 C 8.09375 -0.738281 7.144531 -1.554688 6.5 -2.578125 C 5.851562 -3.609375 5.390625 -4.6875 5.109375 -5.8125 C 4.835938 -6.945312 4.703125 -8.160156 4.703125 -9.453125 L 4.703125 -19.734375 L 0.828125 -19.734375 L 0.828125 -26.765625 Z M 4.703125 -26.765625 "/></g></g></g><g fill="#ebead9" fill-opacity="1"><g transform="translate(125.165317, 139.488157)"><g><path d="M 3.125 0 L 3.125 -44.875 L 12.375 -44.875 L 12.375 -23.953125 L 12.46875 -23.953125 C 14.875 -26.359375 17.429688 -27.5625 20.140625 -27.5625 C 21.460938 -27.5625 22.773438 -27.382812 24.078125 -27.03125 C 25.390625 -26.6875 26.644531 -26.144531 27.84375 -25.40625 C 29.039062 -24.675781 30.015625 -23.640625 30.765625 -22.296875 C 31.515625 -20.960938 31.890625 -19.410156 31.890625 -17.640625 L 31.890625 0 L 22.65625 0 L 22.65625 -15.140625 C 22.65625 -16.523438 22.207031 -17.738281 21.3125 -18.78125 C 20.425781 -19.832031 19.269531 -20.359375 17.84375 -20.359375 C 16.457031 -20.359375 15.195312 -19.816406 14.0625 -18.734375 C 12.9375 -17.660156 12.375 -16.460938 12.375 -15.140625 L 12.375 0 Z M 3.125 0 "/></g></g></g><g fill="#ebead9" fill-opacity="1"><g transform="translate(45.153738, 189.071286)"><g><path d="M 26.046875 -8.875 C 27.535156 -8.875 28.984375 -9.097656 30.390625 -9.546875 C 31.804688 -10.003906 32.84375 -10.441406 33.5 -10.859375 L 34.5 -11.53125 L 38.671875 -3.1875 C 38.535156 -3.082031 38.34375 -2.941406 38.09375 -2.765625 C 37.851562 -2.585938 37.285156 -2.265625 36.390625 -1.796875 C 35.503906 -1.328125 34.554688 -0.914062 33.546875 -0.5625 C 32.546875 -0.21875 31.226562 0.0859375 29.59375 0.359375 C 27.957031 0.640625 26.269531 0.78125 24.53125 0.78125 C 20.53125 0.78125 16.738281 -0.195312 13.15625 -2.15625 C 9.570312 -4.125 6.679688 -6.832031 4.484375 -10.28125 C 2.296875 -13.726562 1.203125 -17.453125 1.203125 -21.453125 C 1.203125 -24.472656 1.84375 -27.375 3.125 -30.15625 C 4.414062 -32.945312 6.128906 -35.332031 8.265625 -37.3125 C 10.410156 -39.289062 12.910156 -40.875 15.765625 -42.0625 C 18.617188 -43.25 21.539062 -43.84375 24.53125 -43.84375 C 27.3125 -43.84375 29.875 -43.507812 32.21875 -42.84375 C 34.570312 -42.1875 36.234375 -41.523438 37.203125 -40.859375 L 38.671875 -39.875 L 34.5 -31.515625 C 34.25 -31.722656 33.878906 -31.972656 33.390625 -32.265625 C 32.910156 -32.566406 31.9375 -32.960938 30.46875 -33.453125 C 29.007812 -33.941406 27.535156 -34.1875 26.046875 -34.1875 C 23.679688 -34.1875 21.554688 -33.800781 19.671875 -33.03125 C 17.796875 -32.269531 16.304688 -31.257812 15.203125 -30 C 14.109375 -28.75 13.273438 -27.398438 12.703125 -25.953125 C 12.128906 -24.515625 11.84375 -23.046875 11.84375 -21.546875 C 11.84375 -18.273438 13.066406 -15.34375 15.515625 -12.75 C 17.972656 -10.164062 21.484375 -8.875 26.046875 -8.875 Z M 26.046875 -8.875 "/></g></g></g><g fill="#ebead9" fill-opacity="1"><g transform="translate(81.845281, 189.071286)"><g><path d="M 4.953125 -3.3125 C 2.453125 -6.039062 1.203125 -9.390625 1.203125 -13.359375 C 1.203125 -17.328125 2.453125 -20.6875 4.953125 -23.4375 C 7.460938 -26.1875 10.648438 -27.5625 14.515625 -27.5625 C 18.054688 -27.5625 20.976562 -26.445312 23.28125 -24.21875 L 23.28125 -26.765625 L 32.515625 -26.765625 L 32.515625 0 L 23.375 0 L 23.375 -3.03125 L 23.28125 -3.03125 C 20.976562 -0.488281 18.054688 0.78125 14.515625 0.78125 C 10.648438 0.78125 7.460938 -0.582031 4.953125 -3.3125 Z M 12.8125 -17.890625 C 11.613281 -16.710938 11.015625 -15.203125 11.015625 -13.359375 C 11.015625 -11.515625 11.585938 -10.007812 12.734375 -8.84375 C 13.878906 -7.675781 15.394531 -7.09375 17.28125 -7.09375 C 19.082031 -7.09375 20.566406 -7.679688 21.734375 -8.859375 C 22.898438 -10.046875 23.484375 -11.546875 23.484375 -13.359375 C 23.484375 -15.203125 22.882812 -16.710938 21.6875 -17.890625 C 20.488281 -19.078125 19.019531 -19.671875 17.28125 -19.671875 C 15.5 -19.671875 14.007812 -19.078125 12.8125 -17.890625 Z M 12.8125 -17.890625 "/></g></g></g><g fill="#ebead9" fill-opacity="1"><g transform="translate(114.883329, 189.071286)"><g><path d="M 3.125 0 L 3.125 -44.875 L 12.375 -44.875 L 12.375 0 Z M 3.125 0 "/></g></g></g><g fill="#ebead9" fill-opacity="1"><g transform="translate(127.774955, 189.071286)"><g><path d="M 3.125 0 L 3.125 -44.875 L 12.375 -44.875 L 12.375 -23.953125 L 12.46875 -23.953125 C 14.875 -26.359375 17.429688 -27.5625 20.140625 -27.5625 C 21.460938 -27.5625 22.773438 -27.382812 24.078125 -27.03125 C 25.390625 -26.6875 26.644531 -26.144531 27.84375 -25.40625 C 29.039062 -24.675781 30.015625 -23.640625 30.765625 -22.296875 C 31.515625 -20.960938 31.890625 -19.410156 31.890625 -17.640625 L 31.890625 0 L 22.65625 0 L 22.65625 -15.140625 C 22.65625 -16.523438 22.207031 -17.738281 21.3125 -18.78125 C 20.425781 -19.832031 19.269531 -20.359375 17.84375 -20.359375 C 16.457031 -20.359375 15.195312 -19.816406 14.0625 -18.734375 C 12.9375 -17.660156 12.375 -16.460938 12.375 -15.140625 L 12.375 0 Z M 3.125 0 "/></g></g></g><g fill="#ebead9" fill-opacity="1"><g transform="translate(159.664761, 189.071286)"><g><path d="M 5.65625 -3.1875 C 2.6875 -5.832031 1.203125 -9.222656 1.203125 -13.359375 C 1.203125 -17.492188 2.75 -20.894531 5.84375 -23.5625 C 8.9375 -26.226562 12.765625 -27.5625 17.328125 -27.5625 C 21.816406 -27.5625 25.597656 -26.21875 28.671875 -23.53125 C 31.753906 -20.851562 33.296875 -17.460938 33.296875 -13.359375 C 33.296875 -9.253906 31.789062 -5.867188 28.78125 -3.203125 C 25.769531 -0.546875 21.953125 0.78125 17.328125 0.78125 C 12.523438 0.78125 8.632812 -0.539062 5.65625 -3.1875 Z M 12.8125 -17.890625 C 11.613281 -16.710938 11.015625 -15.203125 11.015625 -13.359375 C 11.015625 -11.515625 11.585938 -10.007812 12.734375 -8.84375 C 13.878906 -7.675781 15.394531 -7.09375 17.28125 -7.09375 C 19.082031 -7.09375 20.566406 -7.679688 21.734375 -8.859375 C 22.898438 -10.046875 23.484375 -11.546875 23.484375 -13.359375 C 23.484375 -15.203125 22.882812 -16.710938 21.6875 -17.890625 C 20.488281 -19.078125 19.019531 -19.671875 17.28125 -19.671875 C 15.5 -19.671875 14.007812 -19.078125 12.8125 -17.890625 Z M 12.8125 -17.890625 "/></g></g></g><g fill="#ebead9" fill-opacity="1"><g transform="translate(191.554568, 189.071286)"><g><path d="M 11.84375 -26.765625 L 11.84375 -14.03125 C 11.84375 -11.394531 12.242188 -9.519531 13.046875 -8.40625 C 13.847656 -7.289062 15.203125 -6.734375 17.109375 -6.734375 C 19.023438 -6.734375 20.382812 -7.289062 21.1875 -8.40625 C 21.988281 -9.519531 22.390625 -11.394531 22.390625 -14.03125 L 22.390625 -26.765625 L 31.625 -26.765625 L 31.625 -11.796875 C 31.625 -7.335938 30.46875 -4.125 28.15625 -2.15625 C 25.84375 -0.195312 22.160156 0.78125 17.109375 0.78125 C 12.066406 0.78125 8.390625 -0.195312 6.078125 -2.15625 C 3.765625 -4.125 2.609375 -7.335938 2.609375 -11.796875 L 2.609375 -26.765625 Z M 11.84375 -26.765625 "/></g></g></g><g fill="#ebead9" fill-opacity="1"><g transform="translate(223.183418, 189.071286)"><g><path d="M 3.125 0 L 3.125 -26.765625 L 12.375 -26.765625 L 12.375 -23.953125 L 12.46875 -23.953125 C 14.875 -26.359375 17.429688 -27.5625 20.140625 -27.5625 C 21.460938 -27.5625 22.773438 -27.382812 24.078125 -27.03125 C 25.390625 -26.6875 26.644531 -26.144531 27.84375 -25.40625 C 29.039062 -24.675781 30.015625 -23.640625 30.765625 -22.296875 C 31.515625 -20.960938 31.890625 -19.410156 31.890625 -17.640625 L 31.890625 0 L 22.65625 0 L 22.65625 -15.140625 C 22.65625 -16.523438 22.207031 -17.738281 21.3125 -18.78125 C 20.425781 -19.832031 19.269531 -20.359375 17.84375 -20.359375 C 16.457031 -20.359375 15.195312 -19.816406 14.0625 -18.734375 C 12.9375 -17.660156 12.375 -16.460938 12.375 -15.140625 L 12.375 0 Z M 3.125 0 "/></g></g></g><g fill="#ebead9" fill-opacity="1"><g transform="translate(45.153738, 222.974097)"><g><path d="M 3 -3.03125 L 3 -7.4375 L 2.109375 -7.4375 C 2.015625 -7.4375 1.96875 -7.484375 1.96875 -7.578125 L 1.96875 -8.15625 C 1.96875 -8.25 2.015625 -8.296875 2.109375 -8.296875 L 4.890625 -8.296875 C 4.992188 -8.296875 5.046875 -8.25 5.046875 -8.15625 L 5.046875 -7.578125 C 5.046875 -7.484375 4.992188 -7.4375 4.890625 -7.4375 L 4 -7.4375 L 4 -3.140625 C 4 -2.003906 3.734375 -1.195312 3.203125 -0.71875 C 2.671875 -0.238281 1.835938 0 0.703125 0 C 0.609375 0 0.5625 -0.046875 0.5625 -0.140625 L 0.5625 -0.734375 C 0.5625 -0.828125 0.609375 -0.875 0.703125 -0.875 C 1.554688 -0.875 2.148438 -1.046875 2.484375 -1.390625 C 2.828125 -1.742188 3 -2.289062 3 -3.03125 Z M 3 -3.03125 "/></g></g></g><g fill="#ebead9" fill-opacity="1"><g transform="translate(51.325142, 222.974097)"><g><path d="M 8.609375 -4.1875 C 8.609375 -2.925781 8.226562 -1.898438 7.46875 -1.109375 C 6.707031 -0.316406 5.75 0.078125 4.59375 0.078125 C 3.445312 0.078125 2.488281 -0.316406 1.71875 -1.109375 C 0.945312 -1.910156 0.5625 -2.941406 0.5625 -4.203125 C 0.5625 -5.460938 0.957031 -6.472656 1.75 -7.234375 C 2.539062 -7.992188 3.488281 -8.375 4.59375 -8.375 C 5.695312 -8.375 6.640625 -7.992188 7.421875 -7.234375 C 8.210938 -6.472656 8.609375 -5.457031 8.609375 -4.1875 Z M 2.515625 -1.734375 C 3.109375 -1.148438 3.796875 -0.859375 4.578125 -0.859375 C 5.367188 -0.859375 6.054688 -1.148438 6.640625 -1.734375 C 7.234375 -2.328125 7.53125 -3.140625 7.53125 -4.171875 C 7.53125 -5.203125 7.226562 -6.003906 6.625 -6.578125 C 6.03125 -7.160156 5.351562 -7.453125 4.59375 -7.453125 C 3.832031 -7.453125 3.148438 -7.160156 2.546875 -6.578125 C 1.941406 -6.003906 1.640625 -5.203125 1.640625 -4.171875 C 1.640625 -3.140625 1.929688 -2.328125 2.515625 -1.734375 Z M 2.515625 -1.734375 "/></g></g></g><g fill="#ebead9" fill-opacity="1"><g transform="translate(61.067636, 222.974097)"><g><path d="M 3.484375 0 L 0.703125 0 C 0.609375 0 0.5625 -0.046875 0.5625 -0.140625 L 0.5625 -0.734375 C 0.5625 -0.828125 0.609375 -0.875 0.703125 -0.875 L 1.578125 -0.875 L 1.578125 -7.4375 L 0.703125 -7.4375 C 0.609375 -7.4375 0.5625 -7.484375 0.5625 -7.578125 L 0.5625 -8.15625 C 0.5625 -8.25 0.609375 -8.296875 0.703125 -8.296875 L 3.484375 -8.296875 C 3.578125 -8.296875 3.625 -8.25 3.625 -8.15625 L 3.625 -7.578125 C 3.625 -7.484375 3.578125 -7.4375 3.484375 -7.4375 L 2.59375 -7.4375 L 2.59375 -0.875 L 3.484375 -0.875 C 3.578125 -0.875 3.625 -0.828125 3.625 -0.734375 L 3.625 -0.140625 C 3.625 -0.046875 3.578125 0 3.484375 0 Z M 3.484375 0 "/></g></g></g><g fill="#ebead9" fill-opacity="1"><g transform="translate(65.829096, 222.974097)"><g><path d="M 7.75 0 L 7.125 0 C 6.976562 0 6.863281 -0.0234375 6.78125 -0.078125 C 6.695312 -0.140625 6.613281 -0.234375 6.53125 -0.359375 L 3.1875 -5.578125 L 2.609375 -6.5625 L 2.59375 -6.5625 L 2.59375 -0.875 L 3.484375 -0.875 C 3.578125 -0.875 3.625 -0.828125 3.625 -0.734375 L 3.625 -0.140625 C 3.625 -0.046875 3.578125 0 3.484375 0 L 0.703125 0 C 0.609375 0 0.5625 -0.046875 0.5625 -0.140625 L 0.5625 -0.734375 C 0.5625 -0.828125 0.609375 -0.875 0.703125 -0.875 L 1.578125 -0.875 L 1.578125 -7.4375 L 0.703125 -7.4375 C 0.609375 -7.4375 0.5625 -7.484375 0.5625 -7.578125 L 0.5625 -8.15625 C 0.5625 -8.25 0.609375 -8.296875 0.703125 -8.296875 L 2.328125 -8.296875 C 2.546875 -8.296875 2.738281 -8.164062 2.90625 -7.90625 L 6.203125 -2.75 L 6.875 -1.625 L 6.890625 -1.625 L 6.890625 -7.4375 L 6 -7.4375 C 5.90625 -7.4375 5.859375 -7.484375 5.859375 -7.578125 L 5.859375 -8.15625 C 5.859375 -8.25 5.90625 -8.296875 6 -8.296875 L 8.78125 -8.296875 C 8.875 -8.296875 8.921875 -8.25 8.921875 -8.15625 L 8.921875 -7.578125 C 8.921875 -7.484375 8.875 -7.4375 8.78125 -7.4375 L 7.890625 -7.4375 L 7.890625 -0.140625 C 7.890625 -0.046875 7.84375 0 7.75 0 Z M 7.75 0 "/></g></g></g><g fill="#ebead9" fill-opacity="1"><g transform="translate(75.88363, 222.974097)"><g/></g></g><g fill="#ebead9" fill-opacity="1"><g transform="translate(80.078801, 222.974097)"><g><path d="M 5.53125 0 L 2.828125 0 C 2.734375 0 2.6875 -0.0507812 2.6875 -0.15625 L 2.6875 -0.71875 C 2.6875 -0.820312 2.734375 -0.875 2.828125 -0.875 L 3.71875 -0.875 L 3.71875 -7.4375 L 1.53125 -7.4375 L 1.53125 -6.203125 C 1.53125 -6.097656 1.472656 -6.046875 1.359375 -6.046875 L 0.71875 -6.046875 C 0.613281 -6.046875 0.5625 -6.097656 0.5625 -6.203125 L 0.5625 -8.15625 C 0.5625 -8.25 0.613281 -8.296875 0.71875 -8.296875 L 7.6875 -8.296875 C 7.789062 -8.296875 7.84375 -8.25 7.84375 -8.15625 L 7.84375 -6.203125 C 7.84375 -6.097656 7.789062 -6.046875 7.6875 -6.046875 L 7.03125 -6.046875 C 6.925781 -6.046875 6.875 -6.097656 6.875 -6.203125 L 6.875 -7.4375 L 4.71875 -7.4375 L 4.71875 -0.875 L 5.53125 -0.875 C 5.632812 -0.875 5.6875 -0.820312 5.6875 -0.71875 L 5.6875 -0.15625 C 5.6875 -0.0507812 5.632812 0 5.53125 0 Z M 5.53125 0 "/></g></g></g><g fill="#ebead9" fill-opacity="1"><g transform="translate(89.05854, 222.974097)"><g><path d="M 8.78125 0 L 6 0 C 5.90625 0 5.859375 -0.046875 5.859375 -0.140625 L 5.859375 -0.734375 C 5.859375 -0.828125 5.90625 -0.875 6 -0.875 L 6.890625 -0.875 L 6.890625 -3.703125 L 2.59375 -3.703125 L 2.59375 -0.875 L 3.484375 -0.875 C 3.578125 -0.875 3.625 -0.828125 3.625 -0.734375 L 3.625 -0.140625 C 3.625 -0.046875 3.578125 0 3.484375 0 L 0.703125 0 C 0.609375 0 0.5625 -0.046875 0.5625 -0.140625 L 0.5625 -0.734375 C 0.5625 -0.828125 0.609375 -0.875 0.703125 -0.875 L 1.578125 -0.875 L 1.578125 -7.4375 L 0.703125 -7.4375 C 0.609375 -7.4375 0.5625 -7.484375 0.5625 -7.578125 L 0.5625 -8.15625 C 0.5625 -8.25 0.609375 -8.296875 0.703125 -8.296875 L 3.484375 -8.296875 C 3.578125 -8.296875 3.625 -8.25 3.625 -8.15625 L 3.625 -7.578125 C 3.625 -7.484375 3.578125 -7.4375 3.484375 -7.4375 L 2.59375 -7.4375 L 2.59375 -4.546875 L 6.890625 -4.546875 L 6.890625 -7.4375 L 6 -7.4375 C 5.90625 -7.4375 5.859375 -7.484375 5.859375 -7.578125 L 5.859375 -8.15625 C 5.859375 -8.25 5.90625 -8.296875 6 -8.296875 L 8.78125 -8.296875 C 8.875 -8.296875 8.921875 -8.25 8.921875 -8.15625 L 8.921875 -7.578125 C 8.921875 -7.484375 8.875 -7.4375 8.78125 -7.4375 L 7.890625 -7.4375 L 7.890625 -0.875 L 8.78125 -0.875 C 8.875 -0.875 8.921875 -0.828125 8.921875 -0.734375 L 8.921875 -0.140625 C 8.921875 -0.046875 8.875 0 8.78125 0 Z M 8.78125 0 "/></g></g></g><g fill="#ebead9" fill-opacity="1"><g transform="translate(99.113076, 222.974097)"><g><path d="M 6.84375 0 L 0.703125 0 C 0.609375 0 0.5625 -0.046875 0.5625 -0.140625 L 0.5625 -0.734375 C 0.5625 -0.828125 0.609375 -0.875 0.703125 -0.875 L 1.578125 -0.875 L 1.578125 -7.4375 L 0.703125 -7.4375 C 0.609375 -7.4375 0.5625 -7.484375 0.5625 -7.578125 L 0.5625 -8.15625 C 0.5625 -8.25 0.609375 -8.296875 0.703125 -8.296875 L 6.84375 -8.296875 C 6.945312 -8.296875 7 -8.25 7 -8.15625 L 7 -6.296875 C 7 -6.203125 6.945312 -6.15625 6.84375 -6.15625 L 6.21875 -6.15625 C 6.125 -6.15625 6.078125 -6.203125 6.078125 -6.296875 L 6.078125 -7.4375 L 2.59375 -7.4375 L 2.59375 -4.5625 L 5.515625 -4.5625 C 5.617188 -4.5625 5.671875 -4.515625 5.671875 -4.421875 L 5.671875 -3.84375 C 5.671875 -3.75 5.617188 -3.703125 5.515625 -3.703125 L 2.59375 -3.703125 L 2.59375 -0.875 L 6.078125 -0.875 L 6.078125 -2 C 6.078125 -2.09375 6.125 -2.140625 6.21875 -2.140625 L 6.84375 -2.140625 C 6.945312 -2.140625 7 -2.09375 7 -2 L 7 -0.140625 C 7 -0.046875 6.945312 0 6.84375 0 Z M 6.84375 0 "/></g></g></g><g fill="#ebead9" fill-opacity="1"><g transform="translate(107.237603, 222.974097)"><g/></g></g><g fill="#ebead9" fill-opacity="1"><g transform="translate(111.432774, 222.974097)"><g><path d="M 7.578125 0 L 6.5625 0 C 6.289062 0 6.0625 -0.1875 5.875 -0.5625 L 4.78125 -2.765625 C 4.6875 -2.953125 4.585938 -3.09375 4.484375 -3.1875 C 4.390625 -3.28125 4.25 -3.332031 4.0625 -3.34375 L 2.59375 -3.34375 L 2.59375 -0.875 L 3.625 -0.875 C 3.71875 -0.875 3.765625 -0.828125 3.765625 -0.734375 L 3.765625 -0.140625 C 3.765625 -0.046875 3.71875 0 3.625 0 L 0.703125 0 C 0.609375 0 0.5625 -0.046875 0.5625 -0.140625 L 0.5625 -0.734375 C 0.5625 -0.828125 0.609375 -0.875 0.703125 -0.875 L 1.578125 -0.875 L 1.578125 -7.4375 L 0.703125 -7.4375 C 0.609375 -7.4375 0.5625 -7.484375 0.5625 -7.578125 L 0.5625 -8.15625 C 0.5625 -8.25 0.609375 -8.296875 0.703125 -8.296875 L 4.265625 -8.296875 C 5.085938 -8.296875 5.753906 -8.078125 6.265625 -7.640625 C 6.785156 -7.210938 7.046875 -6.597656 7.046875 -5.796875 C 7.046875 -4.585938 6.484375 -3.832031 5.359375 -3.53125 C 5.503906 -3.414062 5.679688 -3.160156 5.890625 -2.765625 L 6.875 -0.875 L 7.578125 -0.875 C 7.671875 -0.875 7.71875 -0.828125 7.71875 -0.734375 L 7.71875 -0.140625 C 7.71875 -0.046875 7.671875 0 7.578125 0 Z M 2.59375 -4.15625 L 4.0625 -4.15625 C 5.375 -4.15625 6.03125 -4.691406 6.03125 -5.765625 C 6.03125 -6.878906 5.375 -7.4375 4.0625 -7.4375 L 2.59375 -7.4375 Z M 2.59375 -4.15625 "/></g></g></g><g fill="#ebead9" fill-opacity="1"><g transform="translate(120.273831, 222.974097)"><g><path d="M 6.84375 0 L 0.703125 0 C 0.609375 0 0.5625 -0.046875 0.5625 -0.140625 L 0.5625 -0.734375 C 0.5625 -0.828125 0.609375 -0.875 0.703125 -0.875 L 1.578125 -0.875 L 1.578125 -7.4375 L 0.703125 -7.4375 C 0.609375 -7.4375 0.5625 -7.484375 0.5625 -7.578125 L 0.5625 -8.15625 C 0.5625 -8.25 0.609375 -8.296875 0.703125 -8.296875 L 6.84375 -8.296875 C 6.945312 -8.296875 7 -8.25 7 -8.15625 L 7 -6.296875 C 7 -6.203125 6.945312 -6.15625 6.84375 -6.15625 L 6.21875 -6.15625 C 6.125 -6.15625 6.078125 -6.203125 6.078125 -6.296875 L 6.078125 -7.4375 L 2.59375 -7.4375 L 2.59375 -4.5625 L 5.515625 -4.5625 C 5.617188 -4.5625 5.671875 -4.515625 5.671875 -4.421875 L 5.671875 -3.84375 C 5.671875 -3.75 5.617188 -3.703125 5.515625 -3.703125 L 2.59375 -3.703125 L 2.59375 -0.875 L 6.078125 -0.875 L 6.078125 -2 C 6.078125 -2.09375 6.125 -2.140625 6.21875 -2.140625 L 6.84375 -2.140625 C 6.945312 -2.140625 7 -2.09375 7 -2 L 7 -0.140625 C 7 -0.046875 6.945312 0 6.84375 0 Z M 6.84375 0 "/></g></g></g><g fill="#ebead9" fill-opacity="1"><g transform="translate(128.398358, 222.974097)"><g><path d="M 1.359375 0 L 0.703125 0 C 0.609375 0 0.5625 -0.046875 0.5625 -0.140625 L 0.5625 -2.84375 C 0.5625 -2.945312 0.609375 -3 0.703125 -3 L 1.4375 -3 C 1.53125 -3 1.578125 -2.945312 1.578125 -2.84375 L 1.578125 -2.609375 C 1.578125 -2.453125 1.664062 -2.253906 1.84375 -2.015625 C 2.019531 -1.773438 2.195312 -1.578125 2.375 -1.421875 C 2.550781 -1.265625 2.785156 -1.128906 3.078125 -1.015625 C 3.378906 -0.910156 3.703125 -0.859375 4.046875 -0.859375 C 4.640625 -0.859375 5.101562 -0.976562 5.4375 -1.21875 C 5.769531 -1.46875 5.9375 -1.8125 5.9375 -2.25 C 5.9375 -2.507812 5.84375 -2.726562 5.65625 -2.90625 C 5.46875 -3.09375 5.222656 -3.238281 4.921875 -3.34375 C 4.617188 -3.445312 4.285156 -3.546875 3.921875 -3.640625 C 3.554688 -3.734375 3.191406 -3.835938 2.828125 -3.953125 C 2.460938 -4.078125 2.128906 -4.222656 1.828125 -4.390625 C 1.523438 -4.554688 1.28125 -4.785156 1.09375 -5.078125 C 0.90625 -5.378906 0.8125 -5.726562 0.8125 -6.125 C 0.8125 -6.769531 1.054688 -7.304688 1.546875 -7.734375 C 2.035156 -8.160156 2.691406 -8.375 3.515625 -8.375 C 4.554688 -8.375 5.316406 -8.066406 5.796875 -7.453125 L 5.78125 -8.171875 C 5.78125 -8.265625 5.832031 -8.3125 5.9375 -8.3125 L 6.578125 -8.3125 C 6.671875 -8.3125 6.71875 -8.265625 6.71875 -8.171875 L 6.71875 -5.65625 C 6.71875 -5.5625 6.671875 -5.515625 6.578125 -5.515625 L 5.84375 -5.515625 C 5.757812 -5.515625 5.71875 -5.5625 5.71875 -5.65625 L 5.71875 -5.984375 C 5.71875 -6.296875 5.535156 -6.613281 5.171875 -6.9375 C 4.816406 -7.257812 4.300781 -7.421875 3.625 -7.421875 C 3.113281 -7.421875 2.703125 -7.296875 2.390625 -7.046875 C 2.078125 -6.804688 1.921875 -6.5 1.921875 -6.125 C 1.921875 -5.851562 2.015625 -5.617188 2.203125 -5.421875 C 2.398438 -5.234375 2.648438 -5.082031 2.953125 -4.96875 C 3.265625 -4.851562 3.601562 -4.75 3.96875 -4.65625 C 4.34375 -4.5625 4.710938 -4.453125 5.078125 -4.328125 C 5.453125 -4.210938 5.789062 -4.070312 6.09375 -3.90625 C 6.40625 -3.75 6.65625 -3.53125 6.84375 -3.25 C 7.039062 -2.96875 7.140625 -2.632812 7.140625 -2.25 C 7.140625 -1.570312 6.894531 -1.015625 6.40625 -0.578125 C 5.925781 -0.140625 5.207031 0.078125 4.25 0.078125 C 3.539062 0.078125 2.953125 -0.0625 2.484375 -0.34375 C 2.023438 -0.632812 1.691406 -0.941406 1.484375 -1.265625 L 1.484375 -0.140625 C 1.484375 -0.046875 1.441406 0 1.359375 0 Z M 1.359375 0 "/></g></g></g><g fill="#ebead9" fill-opacity="1"><g transform="translate(136.673125, 222.974097)"><g><path d="M 3.484375 0 L 0.703125 0 C 0.609375 0 0.5625 -0.046875 0.5625 -0.140625 L 0.5625 -0.734375 C 0.5625 -0.828125 0.609375 -0.875 0.703125 -0.875 L 1.578125 -0.875 L 1.578125 -7.4375 L 0.703125 -7.4375 C 0.609375 -7.4375 0.5625 -7.484375 0.5625 -7.578125 L 0.5625 -8.15625 C 0.5625 -8.25 0.609375 -8.296875 0.703125 -8.296875 L 3.484375 -8.296875 C 3.578125 -8.296875 3.625 -8.25 3.625 -8.15625 L 3.625 -7.578125 C 3.625 -7.484375 3.578125 -7.4375 3.484375 -7.4375 L 2.59375 -7.4375 L 2.59375 -0.875 L 3.484375 -0.875 C 3.578125 -0.875 3.625 -0.828125 3.625 -0.734375 L 3.625 -0.140625 C 3.625 -0.046875 3.578125 0 3.484375 0 Z M 3.484375 0 "/></g></g></g><g fill="#ebead9" fill-opacity="1"><g transform="translate(141.434587, 222.974097)"><g><path d="M 1.359375 0 L 0.703125 0 C 0.609375 0 0.5625 -0.046875 0.5625 -0.140625 L 0.5625 -2.84375 C 0.5625 -2.945312 0.609375 -3 0.703125 -3 L 1.4375 -3 C 1.53125 -3 1.578125 -2.945312 1.578125 -2.84375 L 1.578125 -2.609375 C 1.578125 -2.453125 1.664062 -2.253906 1.84375 -2.015625 C 2.019531 -1.773438 2.195312 -1.578125 2.375 -1.421875 C 2.550781 -1.265625 2.785156 -1.128906 3.078125 -1.015625 C 3.378906 -0.910156 3.703125 -0.859375 4.046875 -0.859375 C 4.640625 -0.859375 5.101562 -0.976562 5.4375 -1.21875 C 5.769531 -1.46875 5.9375 -1.8125 5.9375 -2.25 C 5.9375 -2.507812 5.84375 -2.726562 5.65625 -2.90625 C 5.46875 -3.09375 5.222656 -3.238281 4.921875 -3.34375 C 4.617188 -3.445312 4.285156 -3.546875 3.921875 -3.640625 C 3.554688 -3.734375 3.191406 -3.835938 2.828125 -3.953125 C 2.460938 -4.078125 2.128906 -4.222656 1.828125 -4.390625 C 1.523438 -4.554688 1.28125 -4.785156 1.09375 -5.078125 C 0.90625 -5.378906 0.8125 -5.726562 0.8125 -6.125 C 0.8125 -6.769531 1.054688 -7.304688 1.546875 -7.734375 C 2.035156 -8.160156 2.691406 -8.375 3.515625 -8.375 C 4.554688 -8.375 5.316406 -8.066406 5.796875 -7.453125 L 5.78125 -8.171875 C 5.78125 -8.265625 5.832031 -8.3125 5.9375 -8.3125 L 6.578125 -8.3125 C 6.671875 -8.3125 6.71875 -8.265625 6.71875 -8.171875 L 6.71875 -5.65625 C 6.71875 -5.5625 6.671875 -5.515625 6.578125 -5.515625 L 5.84375 -5.515625 C 5.757812 -5.515625 5.71875 -5.5625 5.71875 -5.65625 L 5.71875 -5.984375 C 5.71875 -6.296875 5.535156 -6.613281 5.171875 -6.9375 C 4.816406 -7.257812 4.300781 -7.421875 3.625 -7.421875 C 3.113281 -7.421875 2.703125 -7.296875 2.390625 -7.046875 C 2.078125 -6.804688 1.921875 -6.5 1.921875 -6.125 C 1.921875 -5.851562 2.015625 -5.617188 2.203125 -5.421875 C 2.398438 -5.234375 2.648438 -5.082031 2.953125 -4.96875 C 3.265625 -4.851562 3.601562 -4.75 3.96875 -4.65625 C 4.34375 -4.5625 4.710938 -4.453125 5.078125 -4.328125 C 5.453125 -4.210938 5.789062 -4.070312 6.09375 -3.90625 C 6.40625 -3.75 6.65625 -3.53125 6.84375 -3.25 C 7.039062 -2.96875 7.140625 -2.632812 7.140625 -2.25 C 7.140625 -1.570312 6.894531 -1.015625 6.40625 -0.578125 C 5.925781 -0.140625 5.207031 0.078125 4.25 0.078125 C 3.539062 0.078125 2.953125 -0.0625 2.484375 -0.34375 C 2.023438 -0.632812 1.691406 -0.941406 1.484375 -1.265625 L 1.484375 -0.140625 C 1.484375 -0.046875 1.441406 0 1.359375 0 Z M 1.359375 0 "/></g></g></g><g fill="#ebead9" fill-opacity="1"><g transform="translate(149.709349, 222.974097)"><g><path d="M 5.53125 0 L 2.828125 0 C 2.734375 0 2.6875 -0.0507812 2.6875 -0.15625 L 2.6875 -0.71875 C 2.6875 -0.820312 2.734375 -0.875 2.828125 -0.875 L 3.71875 -0.875 L 3.71875 -7.4375 L 1.53125 -7.4375 L 1.53125 -6.203125 C 1.53125 -6.097656 1.472656 -6.046875 1.359375 -6.046875 L 0.71875 -6.046875 C 0.613281 -6.046875 0.5625 -6.097656 0.5625 -6.203125 L 0.5625 -8.15625 C 0.5625 -8.25 0.613281 -8.296875 0.71875 -8.296875 L 7.6875 -8.296875 C 7.789062 -8.296875 7.84375 -8.25 7.84375 -8.15625 L 7.84375 -6.203125 C 7.84375 -6.097656 7.789062 -6.046875 7.6875 -6.046875 L 7.03125 -6.046875 C 6.925781 -6.046875 6.875 -6.097656 6.875 -6.203125 L 6.875 -7.4375 L 4.71875 -7.4375 L 4.71875 -0.875 L 5.53125 -0.875 C 5.632812 -0.875 5.6875 -0.820312 5.6875 -0.71875 L 5.6875 -0.15625 C 5.6875 -0.0507812 5.632812 0 5.53125 0 Z M 5.53125 0 "/></g></g></g><g fill="#ebead9" fill-opacity="1"><g transform="translate(158.689082, 222.974097)"><g><path d="M 8.875 0 L 6.265625 0 C 6.171875 0 6.125 -0.046875 6.125 -0.140625 L 6.125 -0.734375 C 6.125 -0.828125 6.171875 -0.875 6.265625 -0.875 L 7.078125 -0.875 L 6.328125 -2.875 L 3.09375 -2.875 L 2.34375 -0.875 L 3.15625 -0.875 C 3.25 -0.875 3.296875 -0.828125 3.296875 -0.734375 L 3.296875 -0.140625 C 3.296875 -0.046875 3.25 0 3.15625 0 L 0.5625 0 C 0.46875 0 0.421875 -0.046875 0.421875 -0.140625 L 0.421875 -0.734375 C 0.421875 -0.828125 0.46875 -0.875 0.5625 -0.875 L 1.328125 -0.875 L 3.8125 -7.4375 L 3.1875 -7.4375 C 3.09375 -7.4375 3.046875 -7.484375 3.046875 -7.578125 L 3.046875 -8.15625 C 3.046875 -8.25 3.09375 -8.296875 3.1875 -8.296875 L 4.765625 -8.296875 C 4.953125 -8.296875 5.09375 -8.257812 5.1875 -8.1875 C 5.28125 -8.113281 5.363281 -7.988281 5.4375 -7.8125 L 8.09375 -0.875 L 8.875 -0.875 C 8.96875 -0.875 9.015625 -0.828125 9.015625 -0.734375 L 9.015625 -0.140625 C 9.015625 -0.046875 8.96875 0 8.875 0 Z M 6.015625 -3.671875 L 4.734375 -7.09375 L 4.6875 -7.09375 L 3.40625 -3.671875 Z M 6.015625 -3.671875 "/></g></g></g><g fill="#ebead9" fill-opacity="1"><g transform="translate(168.986309, 222.974097)"><g><path d="M 7.75 0 L 7.125 0 C 6.976562 0 6.863281 -0.0234375 6.78125 -0.078125 C 6.695312 -0.140625 6.613281 -0.234375 6.53125 -0.359375 L 3.1875 -5.578125 L 2.609375 -6.5625 L 2.59375 -6.5625 L 2.59375 -0.875 L 3.484375 -0.875 C 3.578125 -0.875 3.625 -0.828125 3.625 -0.734375 L 3.625 -0.140625 C 3.625 -0.046875 3.578125 0 3.484375 0 L 0.703125 0 C 0.609375 0 0.5625 -0.046875 0.5625 -0.140625 L 0.5625 -0.734375 C 0.5625 -0.828125 0.609375 -0.875 0.703125 -0.875 L 1.578125 -0.875 L 1.578125 -7.4375 L 0.703125 -7.4375 C 0.609375 -7.4375 0.5625 -7.484375 0.5625 -7.578125 L 0.5625 -8.15625 C 0.5625 -8.25 0.609375 -8.296875 0.703125 -8.296875 L 2.328125 -8.296875 C 2.546875 -8.296875 2.738281 -8.164062 2.90625 -7.90625 L 6.203125 -2.75 L 6.875 -1.625 L 6.890625 -1.625 L 6.890625 -7.4375 L 6 -7.4375 C 5.90625 -7.4375 5.859375 -7.484375 5.859375 -7.578125 L 5.859375 -8.15625 C 5.859375 -8.25 5.90625 -8.296875 6 -8.296875 L 8.78125 -8.296875 C 8.875 -8.296875 8.921875 -8.25 8.921875 -8.15625 L 8.921875 -7.578125 C 8.921875 -7.484375 8.875 -7.4375 8.78125 -7.4375 L 7.890625 -7.4375 L 7.890625 -0.140625 C 7.890625 -0.046875 7.84375 0 7.75 0 Z M 7.75 0 "/></g></g></g><g fill="#ebead9" fill-opacity="1"><g transform="translate(179.040839, 222.974097)"><g><path d="M 8.0625 -2.09375 C 8.09375 -2.0625 8.109375 -2.023438 8.109375 -1.984375 C 8.109375 -1.941406 8.09375 -1.882812 8.0625 -1.8125 C 8.03125 -1.738281 7.972656 -1.640625 7.890625 -1.515625 C 7.804688 -1.398438 7.660156 -1.238281 7.453125 -1.03125 C 7.242188 -0.820312 7.015625 -0.640625 6.765625 -0.484375 C 6.523438 -0.335938 6.203125 -0.207031 5.796875 -0.09375 C 5.390625 0.0195312 4.957031 0.078125 4.5 0.078125 C 3.375 0.078125 2.4375 -0.3125 1.6875 -1.09375 C 0.9375 -1.882812 0.5625 -2.914062 0.5625 -4.1875 C 0.5625 -5.46875 0.9375 -6.484375 1.6875 -7.234375 C 2.445312 -7.992188 3.363281 -8.375 4.4375 -8.375 C 5.632812 -8.375 6.503906 -7.960938 7.046875 -7.140625 L 7.03125 -8.15625 C 7.007812 -8.25 7.054688 -8.296875 7.171875 -8.296875 L 7.8125 -8.296875 C 7.914062 -8.296875 7.96875 -8.25 7.96875 -8.15625 L 7.96875 -5.640625 C 7.96875 -5.546875 7.914062 -5.5 7.8125 -5.5 L 7.09375 -5.5 C 7 -5.5 6.953125 -5.546875 6.953125 -5.640625 L 6.953125 -5.75 C 6.953125 -6.101562 6.707031 -6.46875 6.21875 -6.84375 C 5.738281 -7.226562 5.140625 -7.421875 4.421875 -7.421875 C 3.710938 -7.421875 3.066406 -7.132812 2.484375 -6.5625 C 1.910156 -6 1.625 -5.195312 1.625 -4.15625 C 1.625 -3.125 1.910156 -2.320312 2.484375 -1.75 C 3.066406 -1.175781 3.75 -0.890625 4.53125 -0.890625 C 5.375 -0.890625 6.035156 -1.078125 6.515625 -1.453125 C 6.898438 -1.742188 7.179688 -2.039062 7.359375 -2.34375 C 7.421875 -2.457031 7.492188 -2.484375 7.578125 -2.421875 Z M 8.0625 -2.09375 "/></g></g></g><g fill="#ebead9" fill-opacity="1"><g transform="translate(188.309495, 222.974097)"><g><path d="M 6.84375 0 L 0.703125 0 C 0.609375 0 0.5625 -0.046875 0.5625 -0.140625 L 0.5625 -0.734375 C 0.5625 -0.828125 0.609375 -0.875 0.703125 -0.875 L 1.578125 -0.875 L 1.578125 -7.4375 L 0.703125 -7.4375 C 0.609375 -7.4375 0.5625 -7.484375 0.5625 -7.578125 L 0.5625 -8.15625 C 0.5625 -8.25 0.609375 -8.296875 0.703125 -8.296875 L 6.84375 -8.296875 C 6.945312 -8.296875 7 -8.25 7 -8.15625 L 7 -6.296875 C 7 -6.203125 6.945312 -6.15625 6.84375 -6.15625 L 6.21875 -6.15625 C 6.125 -6.15625 6.078125 -6.203125 6.078125 -6.296875 L 6.078125 -7.4375 L 2.59375 -7.4375 L 2.59375 -4.5625 L 5.515625 -4.5625 C 5.617188 -4.5625 5.671875 -4.515625 5.671875 -4.421875 L 5.671875 -3.84375 C 5.671875 -3.75 5.617188 -3.703125 5.515625 -3.703125 L 2.59375 -3.703125 L 2.59375 -0.875 L 6.078125 -0.875 L 6.078125 -2 C 6.078125 -2.09375 6.125 -2.140625 6.21875 -2.140625 L 6.84375 -2.140625 C 6.945312 -2.140625 7 -2.09375 7 -2 L 7 -0.140625 C 7 -0.046875 6.945312 0 6.84375 0 Z M 6.84375 0 "/></g></g></g></svg>