<svg height="378" preserveAspectRatio="xMidYMid meet" viewBox="0 0 283.5 283.500005" width="378" xmlns="http://www.w3.org/2000/svg" xmlns:xlink="http://www.w3.org/1999/xlink" zoomAndPan="magnify"><clipPath id="a"><path d="m0 0h283v283h-283zm0 0"/></clipPath><path d="m0 0h283v283h-283zm0 0" fill="#fff"/><g clip-path="url(#a)"><path d="m0 0h283.035156v283.035156h-283.035156zm0 0" fill="#3e75ce"/></g><g fill="#ebead9"><path d="m12.9375-43.046875v43.046875h-9.8125v-43.046875zm0 0" transform="translate(45.153738 89.905028)"/><path d="m14.765625-27.5625c1.53125 0 3.039063.179688 4.53125.53125 1.5.34375 2.617187.695312 3.359375 1.046875l1.09375.515625-3.03125 6.0625c-2.085938-1.113281-4.070312-1.671875-5.953125-1.671875-1.042969 0-1.78125.117187-2.21875.34375-.429687.21875-.640625.640625-.640625 1.265625 0 .148438.015625.289062.046875.421875.03125.136719.097656.265625.203125.390625.101562.125.195312.230469.28125.3125.09375.085938.242188.179688.453125.28125.207031.105469.367187.183594.484375.234375.125.054687.328125.132813.609375.234375.28125.105469.488281.183594.625.234375.144531.054687.378906.136719.703125.25.332031.105469.585938.171875.765625.203125 1.070313.3125 2.007813.664062 2.8125 1.046875.800781.375 1.644531.898437 2.53125 1.5625.882813.65625 1.570313 1.492187 2.0625 2.5.488281 1.011719.734375 2.164063.734375 3.453125 0 6.085938-4.230469 9.125-12.6875 9.125-1.917969 0-3.734375-.292969-5.453125-.875-1.71875-.59375-2.964844-1.1875-3.734375-1.78125l-1.140625-.9375 3.75-6.3125c.28125.242188.644531.527344 1.09375.859375.457031.324219 1.273437.777344 2.453125 1.359375 1.1875.574219 2.210938.859375 3.078125.859375 1.914063 0 2.875-.644531 2.875-1.9375 0-.59375-.246094-1.050781-.734375-1.375-.480469-.332031-1.304688-.707031-2.46875-1.125-1.167969-.414063-2.085938-.800781-2.75-1.15625-1.667969-.863281-2.992188-1.84375-3.96875-2.9375-.96875-1.101563-1.453125-2.554687-1.453125-4.359375 0-2.71875 1.050781-4.832031 3.15625-6.34375 2.101563-1.519531 4.945313-2.28125 8.53125-2.28125zm0 0" transform="translate(70.258481 89.905028)"/><path d="m4.703125-26.765625v-9.96875h9.234375v9.96875h5.625v7.03125h-5.625v8.515625c0 2.46875.691406 3.703125 2.078125 3.703125.351563 0 .71875-.066406 1.09375-.203125.382813-.144531.679687-.285156.890625-.421875l.3125-.203125 2.296875 7.453125c-1.980469 1.113281-4.242187 1.671875-6.78125 1.671875-1.742187 0-3.234375-.304688-4.484375-.90625-1.25-.613281-2.199219-1.429688-2.84375-2.453125-.648438-1.03125-1.109375-2.109375-1.390625-3.234375-.273437-1.132812-.40625-2.347656-.40625-3.640625v-10.28125h-3.875v-7.03125zm0 0" transform="translate(93.327703 89.905028)"/><path d="m4.953125-3.3125c-2.5-2.726562-3.75-6.078125-3.75-10.046875s1.25-7.328125 3.75-10.078125c2.507813-2.75 5.695313-4.125 9.5625-4.125 3.539063 0 6.460937 1.117188 8.765625 3.34375v-2.546875h9.234375v26.765625h-9.140625v-3.03125h-.09375c-2.304688 2.542969-5.226562 3.8125-8.765625 3.8125-3.867187 0-7.054687-1.363281-9.5625-4.09375zm7.859375-14.578125c-1.199219 1.179687-1.796875 2.6875-1.796875 4.53125s.570313 3.351563 1.71875 4.515625c1.144531 1.167969 2.660156 1.75 4.546875 1.75 1.800781 0 3.285156-.585938 4.453125-1.765625 1.164063-1.1875 1.75-2.6875 1.75-4.5 0-1.84375-.601563-3.351563-1.796875-4.53125-1.199219-1.1875-2.667969-1.78125-4.40625-1.78125-1.78125 0-3.273438.59375-4.46875 1.78125zm0 0" transform="translate(111.334226 89.905028)"/><path d="m3.125 0v-26.765625h9.25v2.8125h.09375c2.40625-2.40625 4.960938-3.609375 7.671875-3.609375 1.320313 0 2.632813.179688 3.9375.53125 1.3125.34375 2.566406.886719 3.765625 1.625 1.195312.730469 2.171875 1.765625 2.921875 3.109375.75 1.335937 1.125 2.886719 1.125 4.65625v17.640625h-9.234375v-15.140625c0-1.382813-.449219-2.597656-1.34375-3.640625-.886719-1.050781-2.042969-1.578125-3.46875-1.578125-1.386719 0-2.648438.542969-3.78125 1.625-1.125 1.074219-1.6875 2.273437-1.6875 3.59375v15.140625zm0 0" transform="translate(144.372274 89.905028)"/><path d="m4.953125-3.3125c-2.5-2.726562-3.75-6.078125-3.75-10.046875s1.25-7.328125 3.75-10.078125c2.507813-2.75 5.695313-4.125 9.5625-4.125 3.539063 0 6.460937 1.117188 8.765625 3.34375v-20.65625h9.234375v44.875h-9.140625v-3.03125h-.09375c-2.304688 2.542969-5.226562 3.8125-8.765625 3.8125-3.867187 0-7.054687-1.363281-9.5625-4.09375zm7.859375-14.578125c-1.199219 1.179687-1.796875 2.6875-1.796875 4.53125s.570313 3.351563 1.71875 4.515625c1.144531 1.167969 2.660156 1.75 4.546875 1.75 1.800781 0 3.285156-.585938 4.453125-1.765625 1.164063-1.1875 1.75-2.6875 1.75-4.5 0-1.84375-.601563-3.351563-1.796875-4.53125-1.199219-1.1875-2.667969-1.78125-4.40625-1.78125-1.78125 0-3.273438.59375-4.46875 1.78125zm0 0" transform="translate(176.262081 89.905028)"/><path d="m19.5625 0h-6.25l-14.359375-26.765625h10.65625l6.515625 14.453125 6.421875-14.453125h6.359375l6.421875 14.453125 6.53125-14.453125h10.640625l-14.34375 26.765625h-6.265625l-6.15625-13.828125zm0 0" transform="translate(45.153738 139.488157)"/><path d="m4.015625-41.6875c1.082031-1.082031 2.367187-1.625 3.859375-1.625 1.5 0 2.785156.542969 3.859375 1.625 1.082031 1.074219 1.625 2.359375 1.625 3.859375 0 1.492187-.542969 2.777344-1.625 3.859375-1.074219 1.074219-2.359375 1.609375-3.859375 1.609375-1.492188 0-2.777344-.535156-3.859375-1.609375-1.074219-1.082031-1.609375-2.367188-1.609375-3.859375 0-1.5.535156-2.785156 1.609375-3.859375zm-.890625 14.921875v26.765625h9.25v-26.765625zm0 0" transform="translate(94.006205 139.488157)"/><path d="m4.703125-26.765625v-9.96875h9.234375v9.96875h5.625v7.03125h-5.625v8.515625c0 2.46875.691406 3.703125 2.078125 3.703125.351563 0 .71875-.066406 1.09375-.203125.382813-.144531.679687-.285156.890625-.421875l.3125-.203125 2.296875 7.453125c-1.980469 1.113281-4.242187 1.671875-6.78125 1.671875-1.742187 0-3.234375-.304688-4.484375-.90625-1.25-.613281-2.199219-1.429688-2.84375-2.453125-.648438-1.03125-1.109375-2.109375-1.390625-3.234375-.273437-1.132812-.40625-2.347656-.40625-3.640625v-10.28125h-3.875v-7.03125zm0 0" transform="translate(107.158794 139.488157)"/><path d="m3.125 0v-44.875h9.25v20.921875h.09375c2.40625-2.40625 4.960938-3.609375 7.671875-3.609375 1.320313 0 2.632813.179688 3.9375.53125 1.3125.34375 2.566406.886719 3.765625 1.625 1.195312.730469 2.171875 1.765625 2.921875 3.109375.75 1.335937 1.125 2.886719 1.125 4.65625v17.640625h-9.234375v-15.140625c0-1.382813-.449219-2.597656-1.34375-3.640625-.886719-1.050781-2.042969-1.578125-3.46875-1.578125-1.386719 0-2.648438.542969-3.78125 1.625-1.125 1.074219-1.6875 2.273437-1.6875 3.59375v15.140625zm0 0" transform="translate(125.165317 139.488157)"/><path d="m26.046875-8.875c1.488281 0 2.9375-.222656 4.34375-.671875 1.414063-.457031 2.453125-.894531 3.109375-1.3125l1-.671875 4.171875 8.34375c-.136719.105469-.328125.246094-.578125.421875-.242188.179687-.808594.5-1.703125.96875-.886719.46875-1.835937.882813-2.84375 1.234375-1 .34375-2.320313.6484375-3.953125.921875-1.636719.28125-3.324219.421875-5.0625.421875-4 0-7.792969-.976562-11.375-2.9375-3.585938-1.96875-6.476562-4.675781-8.671875-8.125-2.1875-3.445312-3.28125-7.171875-3.28125-11.171875 0-3.019531.640625-5.921875 1.921875-8.703125 1.289062-2.789062 3.003906-5.175781 5.140625-7.15625 2.144531-1.976562 4.644531-3.5625 7.5-4.75 2.851563-1.1875 5.773437-1.78125 8.765625-1.78125 2.78125 0 5.34375.335938 7.6875 1 2.351562.65625 4.015625 1.320312 4.984375 1.984375l1.46875.984375-4.171875 8.359375c-.25-.207031-.621094-.457031-1.109375-.75-.480469-.300781-1.453125-.695313-2.921875-1.1875-1.460938-.488281-2.933594-.734375-4.421875-.734375-2.367187 0-4.492187.386719-6.375 1.15625-1.875.761719-3.367187 1.773438-4.46875 3.03125-1.09375 1.25-1.929687 2.601562-2.5 4.046875-.574219 1.4375-.859375 2.90625-.859375 4.40625 0 3.273437 1.222656 6.203125 3.671875 8.796875 2.457031 2.585938 5.96875 3.875 10.53125 3.875zm0 0" transform="translate(45.153738 189.071286)"/><path d="m4.953125-3.3125c-2.5-2.726562-3.75-6.078125-3.75-10.046875s1.25-7.328125 3.75-10.078125c2.507813-2.75 5.695313-4.125 9.5625-4.125 3.539063 0 6.460937 1.117188 8.765625 3.34375v-2.546875h9.234375v26.765625h-9.140625v-3.03125h-.09375c-2.304688 2.542969-5.226562 3.8125-8.765625 3.8125-3.867187 0-7.054687-1.363281-9.5625-4.09375zm7.859375-14.578125c-1.199219 1.179687-1.796875 2.6875-1.796875 4.53125s.570313 3.351563 1.71875 4.515625c1.144531 1.167969 2.660156 1.75 4.546875 1.75 1.800781 0 3.285156-.585938 4.453125-1.765625 1.164063-1.1875 1.75-2.6875 1.75-4.5 0-1.84375-.601563-3.351563-1.796875-4.53125-1.199219-1.1875-2.667969-1.78125-4.40625-1.78125-1.78125 0-3.273438.59375-4.46875 1.78125zm0 0" transform="translate(81.845281 189.071286)"/><path d="m3.125 0v-44.875h9.25v44.875zm0 0" transform="translate(114.883329 189.071286)"/><path d="m3.125 0v-44.875h9.25v20.921875h.09375c2.40625-2.40625 4.960938-3.609375 7.671875-3.609375 1.320313 0 2.632813.179688 3.9375.53125 1.3125.34375 2.566406.886719 3.765625 1.625 1.195312.730469 2.171875 1.765625 2.921875 3.109375.75 1.335937 1.125 2.886719 1.125 4.65625v17.640625h-9.234375v-15.140625c0-1.382813-.449219-2.597656-1.34375-3.640625-.886719-1.050781-2.042969-1.578125-3.46875-1.578125-1.386719 0-2.648438.542969-3.78125 1.625-1.125 1.074219-1.6875 2.273437-1.6875 3.59375v15.140625zm0 0" transform="translate(127.774955 189.071286)"/><path d="m5.65625-3.1875c-2.96875-2.644531-4.453125-6.035156-4.453125-10.171875 0-4.132813 1.546875-7.535156 4.640625-10.203125 3.09375-2.664062 6.921875-4 11.484375-4 4.488281 0 8.269531 1.34375 11.34375 4.03125 3.082031 2.679688 4.625 6.070312 4.625 10.171875 0 4.105469-1.507813 7.492187-4.515625 10.15625-3.011719 2.65625-6.828125 3.984375-11.453125 3.984375-4.804687 0-8.695313-1.320312-11.671875-3.96875zm7.15625-14.703125c-1.199219 1.179687-1.796875 2.6875-1.796875 4.53125s.570313 3.351563 1.71875 4.515625c1.144531 1.167969 2.660156 1.75 4.546875 1.75 1.800781 0 3.285156-.585938 4.453125-1.765625 1.164063-1.1875 1.75-2.6875 1.75-4.5 0-1.84375-.601563-3.351563-1.796875-4.53125-1.199219-1.1875-2.667969-1.78125-4.40625-1.78125-1.78125 0-3.273438.59375-4.46875 1.78125zm0 0" transform="translate(159.664761 189.071286)"/><path d="m11.84375-26.765625v12.734375c0 2.636719.398438 4.511719 1.203125 5.625.800781 1.117188 2.15625 1.671875 4.0625 1.671875 1.914063 0 3.273437-.554687 4.078125-1.671875.800781-1.113281 1.203125-2.988281 1.203125-5.625v-12.734375h9.234375v14.96875c0 4.460937-1.15625 7.671875-3.46875 9.640625-2.3125 1.960938-5.996094 2.9375-11.046875 2.9375-5.042969 0-8.71875-.976562-11.03125-2.9375-2.3125-1.96875-3.46875-5.179688-3.46875-9.640625v-14.96875zm0 0" transform="translate(191.554568 189.071286)"/><path d="m3.125 0v-26.765625h9.25v2.8125h.09375c2.40625-2.40625 4.960938-3.609375 7.671875-3.609375 1.320313 0 2.632813.179688 3.9375.53125 1.3125.34375 2.566406.886719 3.765625 1.625 1.195312.730469 2.171875 1.765625 2.921875 3.109375.75 1.335937 1.125 2.886719 1.125 4.65625v17.640625h-9.234375v-15.140625c0-1.382813-.449219-2.597656-1.34375-3.640625-.886719-1.050781-2.042969-1.578125-3.46875-1.578125-1.386719 0-2.648438.542969-3.78125 1.625-1.125 1.074219-1.6875 2.273437-1.6875 3.59375v15.140625zm0 0" transform="translate(223.183418 189.071286)"/><path d="m3-3.03125v-4.40625h-.890625c-.09375 0-.140625-.046875-.140625-.140625v-.578125c0-.09375.046875-.140625.140625-.140625h2.78125c.101563 0 .15625.046875.15625.140625v.578125c0 .09375-.054687.140625-.15625.140625h-.890625v4.296875c0 1.136719-.265625 1.945313-.796875 2.421875-.53125.480469-1.367187.71875-2.5.71875-.09375 0-.140625-.046875-.140625-.140625v-.59375c0-.09375.046875-.140625.140625-.140625.851563 0 1.445313-.171875 1.78125-.515625.34375-.351563.515625-.898437.515625-1.640625zm0 0" transform="translate(45.153738 222.974097)"/><path d="m8.609375-4.1875c0 1.261719-.382813 2.289062-1.140625 3.078125-.761719.792969-1.71875 1.1875-2.875 1.1875-1.148438 0-2.105469-.394531-2.875-1.1875-.773438-.800781-1.15625-1.832031-1.15625-3.09375 0-1.257813.394531-2.269531 1.1875-3.03125.789062-.757813 1.738281-1.140625 2.84375-1.140625 1.101562 0 2.046875.382812 2.828125 1.140625.789063.761719 1.1875 1.777344 1.1875 3.046875zm-6.09375 2.453125c.59375.585937 1.28125.875 2.0625.875.789063 0 1.476563-.289063 2.0625-.875.59375-.59375.890625-1.40625.890625-2.4375s-.304688-1.832031-.90625-2.40625c-.59375-.582031-1.273438-.875-2.03125-.875-.761719 0-1.445312.292969-2.046875.875-.605469.574219-.90625 1.375-.90625 2.40625s.289063 1.84375.875 2.4375zm0 0" transform="translate(51.325142 222.974097)"/><path d="m3.484375 0h-2.78125c-.09375 0-.140625-.046875-.140625-.140625v-.59375c0-.09375.046875-.140625.140625-.140625h.875v-6.5625h-.875c-.09375 0-.140625-.046875-.140625-.140625v-.578125c0-.09375.046875-.140625.140625-.140625h2.78125c.09375 0 .140625.046875.140625.140625v.578125c0 .09375-.046875.140625-.140625.140625h-.890625v6.5625h.890625c.09375 0 .140625.046875.140625.140625v.59375c0 .09375-.046875.140625-.140625.140625zm0 0" transform="translate(61.067636 222.974097)"/><path d="m7.75 0h-.625c-.148438 0-.261719-.0234375-.34375-.078125-.085938-.0625-.167969-.15625-.25-.28125l-3.34375-5.21875-.578125-.984375h-.015625v5.6875h.890625c.09375 0 .140625.046875.140625.140625v.59375c0 .09375-.046875.140625-.140625.140625h-2.78125c-.09375 0-.140625-.046875-.140625-.140625v-.59375c0-.09375.046875-.140625.140625-.140625h.875v-6.5625h-.875c-.09375 0-.140625-.046875-.140625-.140625v-.578125c0-.09375.046875-.140625.140625-.140625h1.625c.21875 0 .410156.132813.578125.390625l3.296875 5.15625.671875 1.125h.015625v-5.8125h-.890625c-.09375 0-.140625-.046875-.140625-.140625v-.578125c0-.09375.046875-.140625.140625-.140625h2.78125c.09375 0 .140625.046875.140625.140625v.578125c0 .09375-.046875.140625-.140625.140625h-.890625v7.296875c0 .09375-.046875.140625-.140625.140625zm0 0" transform="translate(65.829096 222.974097)"/><path d="m5.53125 0h-2.703125c-.09375 0-.140625-.0507812-.140625-.15625v-.5625c0-.101562.046875-.15625.140625-.15625h.890625v-6.5625h-2.1875v1.234375c0 .105469-.058594.15625-.171875.15625h-.640625c-.105469 0-.15625-.050781-.15625-.15625v-1.953125c0-.09375.050781-.140625.15625-.140625h6.96875c.101562 0 .15625.046875.15625.140625v1.953125c0 .105469-.054688.15625-.15625.15625h-.65625c-.105469 0-.15625-.050781-.15625-.15625v-1.234375h-2.15625v6.5625h.8125c.101562 0 .15625.054688.15625.15625v.5625c0 .1054688-.054688.15625-.15625.15625zm0 0" transform="translate(80.078801 222.974097)"/><path d="m8.78125 0h-2.78125c-.09375 0-.140625-.046875-.140625-.140625v-.59375c0-.09375.046875-.140625.140625-.140625h.890625v-2.828125h-4.296875v2.828125h.890625c.09375 0 .140625.046875.140625.140625v.59375c0 .09375-.046875.140625-.140625.140625h-2.78125c-.09375 0-.140625-.046875-.140625-.140625v-.59375c0-.09375.046875-.140625.140625-.140625h.875v-6.5625h-.875c-.09375 0-.140625-.046875-.140625-.140625v-.578125c0-.09375.046875-.140625.140625-.140625h2.78125c.09375 0 .140625.046875.140625.140625v.578125c0 .09375-.046875.140625-.140625.140625h-.890625v2.890625h4.296875v-2.890625h-.890625c-.09375 0-.140625-.046875-.140625-.140625v-.578125c0-.09375.046875-.140625.140625-.140625h2.78125c.09375 0 .140625.046875.140625.140625v.578125c0 .09375-.046875.140625-.140625.140625h-.890625v6.5625h.890625c.09375 0 .140625.046875.140625.140625v.59375c0 .09375-.046875.140625-.140625.140625zm0 0" transform="translate(89.05854 222.974097)"/><path d="m6.84375 0h-6.140625c-.09375 0-.140625-.046875-.140625-.140625v-.59375c0-.09375.046875-.140625.140625-.140625h.875v-6.5625h-.875c-.09375 0-.140625-.046875-.140625-.140625v-.578125c0-.09375.046875-.140625.140625-.140625h6.140625c.101562 0 .15625.046875.15625.140625v1.859375c0 .09375-.054688.140625-.15625.140625h-.625c-.09375 0-.140625-.046875-.140625-.140625v-1.140625h-3.484375v2.875h2.921875c.101563 0 .15625.046875.15625.140625v.578125c0 .09375-.054687.140625-.15625.140625h-2.921875v2.828125h3.484375v-1.125c0-.09375.046875-.140625.140625-.140625h.625c.101562 0 .15625.046875.15625.140625v1.859375c0 .09375-.054688.140625-.15625.140625zm0 0" transform="translate(99.113076 222.974097)"/><path d="m7.578125 0h-1.015625c-.273438 0-.5-.1875-.6875-.5625l-1.09375-2.203125c-.09375-.1875-.195312-.328125-.296875-.421875-.09375-.09375-.234375-.144531-.421875-.15625h-1.46875v2.46875h1.03125c.09375 0 .140625.046875.140625.140625v.59375c0 .09375-.046875.140625-.140625.140625h-2.921875c-.09375 0-.140625-.046875-.140625-.140625v-.59375c0-.09375.046875-.140625.140625-.140625h.875v-6.5625h-.875c-.09375 0-.140625-.046875-.140625-.140625v-.578125c0-.09375.046875-.140625.140625-.140625h3.5625c.820313 0 1.488281.21875 2 .65625.519531.429687.78125 1.042969.78125 1.84375 0 1.210937-.5625 1.964844-1.6875 2.265625.144531.117188.320313.371094.53125.765625l.984375 1.890625h.703125c.09375 0 .140625.046875.140625.140625v.59375c0 .09375-.046875.140625-.140625.140625zm-4.984375-4.15625h1.46875c1.3125 0 1.96875-.535156 1.96875-1.609375 0-1.113281-.65625-1.671875-1.96875-1.671875h-1.46875zm0 0" transform="translate(111.432774 222.974097)"/><path d="m6.84375 0h-6.140625c-.09375 0-.140625-.046875-.140625-.140625v-.59375c0-.09375.046875-.140625.140625-.140625h.875v-6.5625h-.875c-.09375 0-.140625-.046875-.140625-.140625v-.578125c0-.09375.046875-.140625.140625-.140625h6.140625c.101562 0 .15625.046875.15625.140625v1.859375c0 .09375-.054688.140625-.15625.140625h-.625c-.09375 0-.140625-.046875-.140625-.140625v-1.140625h-3.484375v2.875h2.921875c.101563 0 .15625.046875.15625.140625v.578125c0 .09375-.054687.140625-.15625.140625h-2.921875v2.828125h3.484375v-1.125c0-.09375.046875-.140625.140625-.140625h.625c.101562 0 .15625.046875.15625.140625v1.859375c0 .09375-.054688.140625-.15625.140625zm0 0" transform="translate(120.273831 222.974097)"/><path d="m1.359375 0h-.65625c-.09375 0-.140625-.046875-.140625-.140625v-2.703125c0-.101562.046875-.15625.140625-.15625h.734375c.09375 0 .140625.054688.140625.15625v.234375c0 .15625.085937.355469.265625.59375.175781.242187.351562.4375.53125.59375.175781.15625.410156.292969.703125.40625.300781.105469.625.15625.96875.15625.59375 0 1.054687-.117187 1.390625-.359375.332031-.25.5-.59375.5-1.03125 0-.257812-.09375-.476562-.28125-.65625-.1875-.1875-.433594-.332031-.734375-.4375-.304687-.101562-.636719-.203125-1-.296875-.367187-.09375-.730469-.195313-1.09375-.3125-.367187-.125-.699219-.269531-1-.4375-.304687-.164063-.546875-.394531-.734375-.6875-.1875-.300781-.28125-.648437-.28125-1.046875 0-.644531.242188-1.179688.734375-1.609375.488281-.425781 1.144531-.640625 1.96875-.640625 1.039063 0 1.800781.308594 2.28125.921875l-.015625-.71875c0-.09375.050781-.140625.15625-.140625h.640625c.09375 0 .140625.046875.140625.140625v2.515625c0 .09375-.046875.140625-.140625.140625h-.734375c-.085938 0-.125-.046875-.125-.140625v-.328125c0-.3125-.183594-.628906-.546875-.953125-.355469-.320312-.871094-.484375-1.546875-.484375-.511719 0-.921875.125-1.234375.375-.3125.242187-.46875.546875-.46875.921875 0 .273438.09375.507812.28125.703125.195313.1875.445313.339844.75.453125.3125.117188.648437.21875 1.015625.3125.375.09375.742188.203125 1.109375.328125.375.117187.710937.257813 1.015625.421875.3125.15625.5625.375.75.65625.195312.28125.296875.617188.296875 1 0 .679688-.246094 1.234375-.734375 1.671875-.480469.4375-1.199219.65625-2.15625.65625-.710938 0-1.296875-.140625-1.765625-.421875-.460937-.289062-.792969-.597656-1-.921875v1.125c0 .09375-.042969.140625-.125.140625zm0 0" transform="translate(128.398358 222.974097)"/><path d="m3.484375 0h-2.78125c-.09375 0-.140625-.046875-.140625-.140625v-.59375c0-.09375.046875-.140625.140625-.140625h.875v-6.5625h-.875c-.09375 0-.140625-.046875-.140625-.140625v-.578125c0-.09375.046875-.140625.140625-.140625h2.78125c.09375 0 .140625.046875.140625.140625v.578125c0 .09375-.046875.140625-.140625.140625h-.890625v6.5625h.890625c.09375 0 .140625.046875.140625.140625v.59375c0 .09375-.046875.140625-.140625.140625zm0 0" transform="translate(136.673125 222.974097)"/><path d="m1.359375 0h-.65625c-.09375 0-.140625-.046875-.140625-.140625v-2.703125c0-.101562.046875-.15625.140625-.15625h.734375c.09375 0 .140625.054688.140625.15625v.234375c0 .15625.085937.355469.265625.59375.175781.242187.351562.4375.53125.59375.175781.15625.410156.292969.703125.40625.300781.105469.625.15625.96875.15625.59375 0 1.054687-.117187 1.390625-.359375.332031-.25.5-.59375.5-1.03125 0-.257812-.09375-.476562-.28125-.65625-.1875-.1875-.433594-.332031-.734375-.4375-.304687-.101562-.636719-.203125-1-.296875-.367187-.09375-.730469-.195313-1.09375-.3125-.367187-.125-.699219-.269531-1-.4375-.304687-.164063-.546875-.394531-.734375-.6875-.1875-.300781-.28125-.648437-.28125-1.046875 0-.644531.242188-1.179688.734375-1.609375.488281-.425781 1.144531-.640625 1.96875-.640625 1.039063 0 1.800781.308594 2.28125.921875l-.015625-.71875c0-.09375.050781-.140625.15625-.140625h.640625c.09375 0 .140625.046875.140625.140625v2.515625c0 .09375-.046875.140625-.140625.140625h-.734375c-.085938 0-.125-.046875-.125-.140625v-.328125c0-.3125-.183594-.628906-.546875-.953125-.355469-.320312-.871094-.484375-1.546875-.484375-.511719 0-.921875.125-1.234375.375-.3125.242187-.46875.546875-.46875.921875 0 .273438.09375.507812.28125.703125.195313.1875.445313.339844.75.453125.3125.117188.648437.21875 1.015625.3125.375.09375.742188.203125 1.109375.328125.375.117187.710937.257813 1.015625.421875.3125.15625.5625.375.75.65625.195312.28125.296875.617188.296875 1 0 .679688-.246094 1.234375-.734375 1.671875-.480469.4375-1.199219.65625-2.15625.65625-.710938 0-1.296875-.140625-1.765625-.421875-.460937-.289062-.792969-.597656-1-.921875v1.125c0 .09375-.042969.140625-.125.140625zm0 0" transform="translate(141.434587 222.974097)"/><path d="m5.53125 0h-2.703125c-.09375 0-.140625-.0507812-.140625-.15625v-.5625c0-.101562.046875-.15625.140625-.15625h.890625v-6.5625h-2.1875v1.234375c0 .105469-.058594.15625-.171875.15625h-.640625c-.105469 0-.15625-.050781-.15625-.15625v-1.953125c0-.09375.050781-.140625.15625-.140625h6.96875c.101562 0 .15625.046875.15625.140625v1.953125c0 .105469-.054688.15625-.15625.15625h-.65625c-.105469 0-.15625-.050781-.15625-.15625v-1.234375h-2.15625v6.5625h.8125c.101562 0 .15625.054688.15625.15625v.5625c0 .1054688-.054688.15625-.15625.15625zm0 0" transform="translate(149.709349 222.974097)"/><path d="m8.875 0h-2.609375c-.09375 0-.140625-.046875-.140625-.140625v-.59375c0-.09375.046875-.140625.140625-.140625h.8125l-.75-2h-3.234375l-.75 2h.8125c.09375 0 .140625.046875.140625.140625v.59375c0 .09375-.046875.140625-.140625.140625h-2.59375c-.09375 0-.140625-.046875-.140625-.140625v-.59375c0-.09375.046875-.140625.140625-.140625h.765625l2.484375-6.5625h-.625c-.09375 0-.140625-.046875-.140625-.140625v-.578125c0-.09375.046875-.140625.140625-.140625h1.578125c.1875 0 .328125.039063.421875.109375.09375.074219.175781.199219.25.375l2.65625 6.9375h.78125c.09375 0 .140625.046875.140625.140625v.59375c0 .09375-.046875.140625-.140625.140625zm-2.859375-3.671875-1.28125-3.421875h-.046875l-1.28125 3.421875zm0 0" transform="translate(158.689082 222.974097)"/><path d="m7.75 0h-.625c-.148438 0-.261719-.0234375-.34375-.078125-.085938-.0625-.167969-.15625-.25-.28125l-3.34375-5.21875-.578125-.984375h-.015625v5.6875h.890625c.09375 0 .140625.046875.140625.140625v.59375c0 .09375-.046875.140625-.140625.140625h-2.78125c-.09375 0-.140625-.046875-.140625-.140625v-.59375c0-.09375.046875-.140625.140625-.140625h.875v-6.5625h-.875c-.09375 0-.140625-.046875-.140625-.140625v-.578125c0-.09375.046875-.140625.140625-.140625h1.625c.21875 0 .410156.132813.578125.390625l3.296875 5.15625.671875 1.125h.015625v-5.8125h-.890625c-.09375 0-.140625-.046875-.140625-.140625v-.578125c0-.09375.046875-.140625.140625-.140625h2.78125c.09375 0 .140625.046875.140625.140625v.578125c0 .09375-.046875.140625-.140625.140625h-.890625v7.296875c0 .09375-.046875.140625-.140625.140625zm0 0" transform="translate(168.986309 222.974097)"/><path d="m8.0625-2.09375c.03125.03125.046875.070312.046875.109375 0 .042969-.015625.101563-.046875.171875-.03125.074219-.089844.171875-.171875.296875-.085937.117187-.230469.277344-.4375.484375-.210937.210938-.4375.390625-.6875.546875-.242187.148437-.5625.277344-.96875.390625-.40625.1132812-.839844.171875-1.296875.171875-1.125 0-2.0625-.390625-2.8125-1.171875-.75-.789062-1.125-1.820312-1.125-3.09375 0-1.28125.375-2.296875 1.125-3.046875.757812-.757813 1.675781-1.140625 2.75-1.140625 1.195312 0 2.066406.414062 2.609375 1.234375l-.015625-1.015625c-.023438-.09375.023438-.140625.140625-.140625h.640625c.101562 0 .15625.046875.15625.140625v2.515625c0 .09375-.054688.140625-.15625.140625h-.71875c-.09375 0-.140625-.046875-.140625-.140625v-.109375c0-.351562-.246094-.71875-.734375-1.09375-.480469-.382812-1.078125-.578125-1.796875-.578125-.710937 0-1.355469.289063-1.9375.859375-.574219.5625-.859375 1.367188-.859375 2.40625 0 1.03125.285156 1.835938.859375 2.40625.582031.574219 1.265625.859375 2.046875.859375.84375 0 1.503906-.1875 1.984375-.5625.382813-.289063.664063-.585937.84375-.890625.0625-.113281.132813-.140625.21875-.078125zm0 0" transform="translate(179.040839 222.974097)"/><path d="m6.84375 0h-6.140625c-.09375 0-.140625-.046875-.140625-.140625v-.59375c0-.09375.046875-.140625.140625-.140625h.875v-6.5625h-.875c-.09375 0-.140625-.046875-.140625-.140625v-.578125c0-.09375.046875-.140625.140625-.140625h6.140625c.101562 0 .15625.046875.15625.140625v1.859375c0 .09375-.054688.140625-.15625.140625h-.625c-.09375 0-.140625-.046875-.140625-.140625v-1.140625h-3.484375v2.875h2.921875c.101563 0 .15625.046875.15625.140625v.578125c0 .09375-.054687.140625-.15625.140625h-2.921875v2.828125h3.484375v-1.125c0-.09375.046875-.140625.140625-.140625h.625c.101562 0 .15625.046875.15625.140625v1.859375c0 .09375-.054688.140625-.15625.140625zm0 0" transform="translate(188.309495 222.974097)"/></g></svg>